<svg width="41" height="41" viewBox="0 0 41 41" fill="none" xmlns="http://www.w3.org/2000/svg">
<rect x="0.181824" y="0.636353" width="40" height="40" rx="5" fill="#613A94"/>
<path d="M31.5775 17.515C30.6501 17.515 29.834 17.884 29.2343 18.4612C27.0271 16.9913 24.0533 16.0451 20.758 15.9439L22.4706 8.51703L27.9236 9.69534C27.9236 10.9808 29.0117 12.0282 30.3472 12.0282C31.7073 12.0282 32.8016 10.951 32.8016 9.66558C32.8016 8.38016 31.7135 7.30302 30.3472 7.30302C29.395 7.30302 28.5728 7.85646 28.1647 8.61225L22.1429 7.32682C21.84 7.24946 21.5432 7.45774 21.4628 7.74935L19.5833 15.938C16.3128 16.0689 13.3699 17.0151 11.1565 18.485C10.5568 17.884 9.70982 17.515 8.78244 17.515C5.34494 17.515 4.21972 21.9545 7.36663 23.472C7.25535 23.9422 7.20589 24.442 7.20589 24.9419C7.20589 29.9289 13.0422 33.9697 20.2078 33.9697C27.4043 33.9697 33.2406 29.9289 33.2406 24.9419C33.2406 24.442 33.1849 23.9184 33.0489 23.4482C36.134 21.9248 34.9964 17.515 31.5775 17.515ZM12.3559 23.7874C12.3559 22.4782 13.4441 21.4249 14.8104 21.4249C16.1459 21.4249 17.234 22.4722 17.234 23.7874C17.234 25.0729 16.1459 26.1202 14.8104 26.1202C13.4503 26.1262 12.3559 25.0729 12.3559 23.7874ZM25.6051 29.3517C23.3547 31.5179 17.0052 31.5179 14.7548 29.3517C14.5075 29.1434 14.5075 28.7744 14.7548 28.5364C14.9712 28.3281 15.3545 28.3281 15.5709 28.5364C17.2896 30.2324 22.9899 30.2622 24.7829 28.5364C24.9993 28.3281 25.3826 28.3281 25.599 28.5364C25.8524 28.7744 25.8524 29.1434 25.6051 29.3517ZM25.5557 26.1262C24.2203 26.1262 23.1321 25.0788 23.1321 23.7934C23.1321 22.4842 24.2203 21.4308 25.5557 21.4308C26.9158 21.4308 28.0102 22.4782 28.0102 23.7934C28.004 25.0729 26.9158 26.1262 25.5557 26.1262Z" fill="white"/>
</svg>
