<svg width="41" height="41" viewBox="0 0 41 41" fill="none" xmlns="http://www.w3.org/2000/svg">
<rect x="0.272705" y="0.636353" width="40" height="40" rx="5" fill="#613A94"/>
<path d="M33.4906 18.2829C33.6594 19.1876 33.7514 20.1335 33.7514 21.1206C33.7514 28.8414 28.5841 34.3314 20.7795 34.3314C19.0047 34.3319 17.2471 33.9827 15.6072 33.3038C13.9674 32.6248 12.4774 31.6294 11.2224 30.3744C9.96734 29.1193 8.97191 27.6293 8.29295 25.9895C7.61399 24.3496 7.26481 22.592 7.26535 20.8172C7.26481 19.0423 7.61399 17.2848 8.29295 15.6449C8.97191 14.005 9.96734 12.515 11.2224 11.26C12.4774 10.005 13.9674 9.00958 15.6072 8.33062C17.2471 7.65166 19.0047 7.30248 20.7795 7.30302C24.4285 7.30302 27.4776 8.64565 29.8169 10.8257L26.0073 14.6353V14.6257C24.5891 13.2748 22.7893 12.5816 20.7795 12.5816C16.3206 12.5816 12.6963 16.3486 12.6963 20.809C12.6963 25.2679 16.3206 29.0432 20.7795 29.0432C24.8253 29.0432 27.5792 26.73 28.1448 23.5532H20.7795V18.2829H33.492H33.4906Z" fill="white"/>
</svg>
