<svg width="120" height="30" viewBox="0 0 120 30" fill="none" xmlns="http://www.w3.org/2000/svg">
<path d="M59.1664 20.9492C59.1664 22.0766 58.9946 23.0865 58.6511 23.979C58.3305 24.8715 57.884 25.6231 57.3115 26.2338C56.739 26.8679 56.0635 27.3494 55.2849 27.6782C54.5063 28.0305 53.659 28.2067 52.743 28.2067C51.827 28.2067 50.9797 28.0305 50.2011 27.6782C49.4225 27.3259 48.747 26.8327 48.1745 26.1985C47.602 25.5644 47.1555 24.8011 46.8349 23.9086C46.5143 23.0161 46.354 22.0414 46.354 20.9844V17.8489C45.0945 19.587 43.4457 20.456 41.4076 20.456C40.3084 20.456 39.3237 20.2446 38.4535 19.8218C37.6063 19.3756 36.8849 18.7532 36.2895 17.9546C35.6941 17.1561 35.2361 16.2166 34.9155 15.1362C34.6178 14.0323 34.469 12.8227 34.469 11.5075C34.469 10.0513 34.6522 8.74777 35.0186 7.59691C35.385 6.44605 35.8888 5.47134 36.53 4.67279C37.1712 3.87423 37.9383 3.26357 38.8314 2.84081C39.7245 2.41805 40.7092 2.20667 41.7855 2.20667C43.8922 2.20667 45.4609 3.06394 46.4914 4.77848L46.5257 2.66466H50.8194V21.0197C50.8194 22.2175 51.0026 23.0395 51.369 23.4858C51.7583 23.9321 52.3079 24.1552 53.0178 24.1552C53.6819 24.1552 54.1742 23.9086 54.4948 23.4153C54.8154 22.9221 54.9757 22.1001 54.9757 20.9492H59.1664ZM42.8503 16.5454C45.3464 16.5454 46.5944 14.6665 46.5944 10.9086C46.5944 9.42889 46.228 8.23105 45.4952 7.31507C44.7853 6.39908 43.8922 5.94108 42.816 5.94108C41.6939 5.94108 40.7779 6.43431 40.068 7.42076C39.3581 8.38372 39.0031 9.64027 39.0031 11.1904C39.0031 14.7604 40.2855 16.5454 42.8503 16.5454Z" fill="#3C255D"/>
<path d="M63.4153 19.998V17.5671C62.2703 19.493 60.5184 20.456 58.1598 20.456C57.3125 20.456 56.5339 20.3033 55.824 19.998C55.137 19.6927 54.5416 19.2582 54.0378 18.6945C53.534 18.1308 53.1333 17.4614 52.8356 16.6863C52.5608 15.9113 52.4234 15.0423 52.4234 14.0793V2.66466H56.8888V13.3747C56.8888 15.5355 57.8392 16.6159 59.7398 16.6159C60.8848 16.6159 61.7436 16.2518 62.3161 15.5237C62.9115 14.7722 63.2092 13.8209 63.2092 12.6701V2.66466H67.6403V19.998H63.4153Z" fill="#3C255D"/>
<path d="M80.7275 9.64027C80.7046 9.00612 80.5901 8.45418 80.384 7.98444C80.2008 7.49122 79.9489 7.09194 79.6283 6.78661C79.3077 6.45779 78.9413 6.22292 78.5291 6.082C78.1169 5.9176 77.6932 5.83539 77.2581 5.83539C76.3651 5.83539 75.5865 6.17595 74.9224 6.85707C74.2812 7.5147 73.9148 8.44244 73.8232 9.64027H80.7275ZM73.6858 12.5292C73.7545 13.8444 74.1209 14.8896 74.785 15.6647C75.472 16.4397 76.3651 16.8273 77.4642 16.8273C78.197 16.8273 78.8382 16.6629 79.3878 16.334C79.9603 15.9817 80.3267 15.5003 80.487 14.8896H85.0899C84.5632 16.6746 83.6472 18.0486 82.3419 19.0115C81.0366 19.9745 79.4794 20.456 77.6703 20.456C72.037 20.456 69.2203 17.3087 69.2203 11.0143C69.2203 9.6755 69.4035 8.46592 69.7699 7.38553C70.1363 6.30513 70.663 5.3774 71.35 4.60233C72.0599 3.82726 72.9186 3.24009 73.9262 2.84081C74.9338 2.41805 76.0903 2.20667 77.3955 2.20667C80.0061 2.20667 81.9755 3.06394 83.3037 4.77848C84.6548 6.49302 85.3303 9.07658 85.3303 12.5292H73.6858Z" fill="#3C255D"/>
<path d="M98.0029 9.64027C97.98 9.00612 97.8655 8.45418 97.6594 7.98444C97.4762 7.49122 97.2243 7.09194 96.9037 6.78661C96.5831 6.45779 96.2167 6.22292 95.8045 6.082C95.3923 5.9176 94.9687 5.83539 94.5336 5.83539C93.6405 5.83539 92.8619 6.17595 92.1978 6.85707C91.5566 7.5147 91.1902 8.44244 91.0986 9.64027H98.0029ZM90.9612 12.5292C91.0299 13.8444 91.3963 14.8896 92.0604 15.6647C92.7474 16.4397 93.6405 16.8273 94.7397 16.8273C95.4725 16.8273 96.1137 16.6629 96.6633 16.334C97.2358 15.9817 97.6022 15.5003 97.7624 14.8896H102.365C101.839 16.6746 100.923 18.0486 99.6173 19.0115C98.312 19.9745 96.7549 20.456 94.9458 20.456C89.3124 20.456 86.4958 17.3087 86.4958 11.0143C86.4958 9.6755 86.679 8.46592 87.0454 7.38553C87.4118 6.30513 87.9385 5.3774 88.6255 4.60233C89.3353 3.82726 90.1941 3.24009 91.2017 2.84081C92.2093 2.41805 93.3657 2.20667 94.671 2.20667C97.2816 2.20667 99.2509 3.06394 100.579 4.77848C101.93 6.49302 102.606 9.07658 102.606 12.5292H90.9612Z" fill="#3C255D"/>
<path d="M114.969 19.998V9.49935C114.969 8.16059 114.752 7.25635 114.317 6.78661C113.881 6.31687 113.137 6.082 112.084 6.082C109.771 6.082 108.615 7.40901 108.615 10.063V19.998H104.149V2.66466H108.408V5.20124C108.935 4.21479 109.634 3.47496 110.504 2.98173C111.374 2.46502 112.496 2.20667 113.87 2.20667C114.671 2.20667 115.416 2.33584 116.103 2.5942C116.79 2.82907 117.374 3.19311 117.855 3.68634C118.358 4.17956 118.748 4.79022 119.022 5.51832C119.32 6.22292 119.469 7.04497 119.469 7.98444V19.998H114.969Z" fill="#3C255D"/>
<path d="M0 9.68487C0 4.33606 4.33607 0 9.68487 0H29.4133V19.7284C29.4133 25.0773 25.0773 29.4133 19.7284 29.4133H0V9.68487Z" fill="#6F42A9"/>
<path d="M23.6506 8.76137C23.2802 9.13176 22.9207 9.49126 22.9098 9.85075C22.8771 10.1994 23.2475 10.5589 23.5961 10.8966C24.119 11.4412 24.631 11.9315 24.6092 12.4653C24.5875 12.9991 24.0319 13.5546 23.4763 14.0993L18.9771 18.6094L17.4302 17.0625L22.0601 12.4435L21.0143 11.3977L19.4674 12.9337L15.3822 8.84852L19.5654 4.67619C19.9903 4.25133 20.6984 4.25133 21.1014 4.67619L23.6506 7.22534C24.0754 7.62841 24.0754 8.33651 23.6506 8.76137ZM4.35764 19.884L14.7721 9.45857L18.8573 13.5438L8.44282 23.9691H4.35764V19.884Z" fill="#B99CDF"/>
</svg>
