<svg width="40" height="41" viewBox="0 0 40 41" fill="none" xmlns="http://www.w3.org/2000/svg">
<rect y="0.636353" width="40" height="40" rx="5" fill="#613A94"/>
<path d="M33.3333 12.3079C32.3587 12.7397 31.3117 13.0315 30.2111 13.1634C31.3468 12.4839 32.1964 11.4143 32.6015 10.1544C31.5345 10.7881 30.3667 11.2343 29.1489 11.4733C28.33 10.5989 27.2453 10.0194 26.0632 9.8246C24.8811 9.62985 23.6678 9.83081 22.6117 10.3963C21.5555 10.9617 20.7156 11.8601 20.2223 12.9518C19.729 14.0435 19.61 15.2676 19.8836 16.4339C17.7216 16.3254 15.6066 15.7634 13.6758 14.7846C11.745 13.8057 10.0416 12.4318 8.67613 10.752C8.20925 11.5573 7.94079 12.4911 7.94079 13.4856C7.94027 14.3808 8.16073 15.2623 8.58261 16.0519C9.0045 16.8415 9.61475 17.5148 10.3592 18.012C9.49583 17.9845 8.65147 17.7512 7.89644 17.3315V17.4015C7.89635 18.6572 8.33068 19.8741 9.12572 20.846C9.92076 21.8178 11.0276 22.4846 12.2583 22.7333C11.4573 22.9501 10.6176 22.982 9.80248 22.8267C10.1497 23.9071 10.8261 24.8518 11.737 25.5287C12.6478 26.2056 13.7475 26.5807 14.8822 26.6015C12.9561 28.1135 10.5774 28.9336 8.12871 28.93C7.69496 28.9301 7.26157 28.9048 6.83078 28.8542C9.31632 30.4523 12.2097 31.3004 15.1646 31.2971C25.1676 31.2971 30.6359 23.0123 30.6359 15.827C30.6359 15.5935 30.6301 15.3578 30.6196 15.1243C31.6833 14.3551 32.6014 13.4026 33.331 12.3114L33.3333 12.3079Z" fill="white"/>
</svg>
